<svg width="100%" height="100%" viewBox="0 0 500 54" xmlns="http://www.w3.org/2000/svg"><defs><filter x="-94.1%" y="-96.3%" width="288.1%" height="292.6%" filterUnits="objectBoundingBox" id="a"><feGaussianBlur stdDeviation="16.9821364 -1.21674515" in="SourceGraphic"/></filter></defs><g fill="none" fill-rule="evenodd"><path d="M66.213.591c6.448 0 11.571 1.9 15.37 5.698 3.799 3.799 5.698 9.496 5.698 17.094v29.494H72.342V25.681c0-4.086-.846-7.134-2.538-9.145-1.692-2.011-4.102-3.017-7.23-3.017-3.511 0-6.288 1.133-8.331 3.4-2.043 2.266-3.064 5.634-3.064 10.103v25.855h-14.94V25.681c0-8.108-3.255-12.162-9.767-12.162-3.447 0-6.193 1.133-8.236 3.4-2.043 2.266-3.064 5.634-3.064 10.103v25.855H.233V1.357h14.269v5.938c1.915-2.171 4.261-3.83 7.038-4.98C24.317 1.165 27.366.59 30.685.59c3.64 0 6.927.718 9.864 2.155 2.937 1.436 5.299 3.527 7.086 6.272 2.107-2.681 4.772-4.756 7.996-6.224C58.855 1.325 62.383.59 66.213.59zm61.692 53.052c-5.426 0-10.294-1.133-14.604-3.4-4.309-2.266-7.676-5.41-10.102-9.432s-3.64-8.586-3.64-13.694c0-5.107 1.214-9.672 3.64-13.694s5.793-7.166 10.102-9.432c4.31-2.267 9.178-3.4 14.604-3.4 5.427 0 10.279 1.133 14.556 3.4 4.277 2.266 7.63 5.41 10.055 9.432 2.426 4.022 3.639 8.587 3.639 13.694 0 5.108-1.213 9.672-3.639 13.694-2.426 4.022-5.778 7.166-10.055 9.433-4.277 2.266-9.13 3.4-14.556 3.4zm0-12.257c3.83 0 6.975-1.293 9.433-3.879 2.458-2.585 3.687-6.048 3.687-10.39 0-4.34-1.23-7.804-3.687-10.39-2.458-2.585-5.602-3.878-9.433-3.878-3.83 0-6.99 1.293-9.48 3.878-2.49 2.586-3.735 6.05-3.735 10.39 0 4.342 1.245 7.805 3.735 10.39 2.49 2.586 5.65 3.879 9.48 3.879zm93.368-40.029l-21.738 51.52h-15.417l-21.643-51.52h15.418l14.269 35.05 14.747-35.05h14.364zm151.013 52.286c-5.426 0-10.294-1.133-14.604-3.4-4.309-2.266-7.676-5.41-10.102-9.432s-3.64-8.586-3.64-13.694c0-5.107 1.214-9.672 3.64-13.694s5.793-7.166 10.102-9.432c4.31-2.267 9.178-3.4 14.604-3.4 5.427 0 10.279 1.133 14.556 3.4 4.277 2.266 7.629 5.41 10.055 9.432s3.639 8.587 3.639 13.694c0 5.108-1.213 9.672-3.639 13.694-2.426 4.022-5.778 7.166-10.055 9.433-4.277 2.266-9.13 3.4-14.556 3.4zm0-12.257c3.83 0 6.975-1.293 9.433-3.879 2.458-2.585 3.687-6.048 3.687-10.39 0-4.34-1.23-7.804-3.687-10.39-2.458-2.585-5.602-3.878-9.433-3.878-3.83 0-6.99 1.293-9.48 3.878-2.49 2.586-3.735 6.05-3.735 10.39 0 4.342 1.245 7.805 3.735 10.39 2.49 2.586 5.65 3.879 9.48 3.879zM478.603.59c6.448 0 11.572 1.9 15.37 5.698 3.799 3.799 5.698 9.496 5.698 17.094v29.494h-14.939V25.681c0-4.086-.846-7.134-2.538-9.145-1.691-2.011-4.101-3.017-7.23-3.017-3.511 0-6.288 1.133-8.331 3.4-2.043 2.266-3.064 5.634-3.064 10.103v25.855h-14.94V25.681c0-8.108-3.255-12.162-9.767-12.162-3.447 0-6.193 1.133-8.235 3.4-2.043 2.266-3.065 5.634-3.065 10.103v25.855h-14.939V1.357h14.269v5.938c1.915-2.171 4.261-3.83 7.038-4.98 2.777-1.15 5.826-1.724 9.146-1.724 3.639 0 6.926.718 9.863 2.155 2.937 1.436 5.299 3.527 7.086 6.272 2.107-2.681 4.773-4.756 7.997-6.224 3.224-1.469 6.75-2.203 10.581-2.203z" fill="#3F3C3C"/><path d="M288.552 27.309c0 .191-.096 1.532-.287 4.022H249.29c.702 3.192 2.362 5.714 4.98 7.565 2.617 1.851 5.873 2.777 9.767 2.777 2.682 0 5.06-.399 7.134-1.197 2.075-.798 4.006-2.059 5.794-3.782l7.948 8.618c-4.852 5.554-11.938 8.331-21.259 8.331-5.81 0-10.949-1.133-15.418-3.4-4.468-2.266-7.916-5.41-10.342-9.432s-3.639-8.586-3.639-13.694c0-5.043 1.197-9.592 3.591-13.646s5.682-7.214 9.864-9.48c4.181-2.267 8.858-3.4 14.029-3.4 5.043 0 9.608 1.086 13.694 3.256s7.294 5.283 9.624 9.337c2.33 4.054 3.495 8.762 3.495 14.125zM261.835 11.89c-3.384 0-6.225.958-8.523 2.873-2.298 1.915-3.703 4.533-4.214 7.852h25.377c-.51-3.255-1.915-5.857-4.213-7.804-2.299-1.947-5.108-2.92-8.427-2.92z" fill-opacity=".219" fill="#525761"/><path d="M288.44 26.892c0 .192-.096 1.533-.288 4.022h-38.975c.702 3.193 2.362 5.714 4.98 7.566 2.617 1.851 5.873 2.777 9.767 2.777 2.682 0 5.06-.4 7.135-1.197 2.074-.798 4.006-2.06 5.793-3.783l7.948 8.619c-4.852 5.554-11.938 8.331-21.259 8.331-5.81 0-10.949-1.133-15.417-3.4-4.47-2.266-7.917-5.41-10.343-9.432s-3.639-8.587-3.639-13.694c0-5.044 1.197-9.592 3.591-13.646s5.682-7.214 9.864-9.48c4.181-2.267 8.858-3.4 14.029-3.4 5.043 0 9.608 1.085 13.694 3.256 4.086 2.17 7.294 5.283 9.624 9.337 2.33 4.054 3.495 8.762 3.495 14.124zm-26.718-15.417c-3.384 0-6.225.957-8.523 2.873-2.298 1.915-3.703 4.532-4.214 7.852h25.377c-.51-3.256-1.915-5.857-4.213-7.804-2.298-1.948-5.107-2.921-8.427-2.921z" fill="#3F3C3C" filter="url(#a)"/></g></svg>